name baseline.mot
datacolumns 19
datarows 18
range 3.73498700000000 3.76332200000000
endheader
time	ground_force1_vx	ground_force1_vy	ground_force1_vz	ground_force1_px	ground_force1_py	ground_force1_pz	ground_force2_vx	ground_force2_vy	ground_force2_vz	ground_force2_px	ground_force2_py	ground_force2_pz	ground_torque1_x	ground_torque1_y	ground_torque1_z	ground_torque2_x	ground_torque2_y	ground_torque2_z	
3.73498700000000	81.68264900000000	786.51053500000000	60.64259400000000	0.18124600000000	0.00000000000000	0.10596000000000	0.00000000000000	0.00000000000000	0.00000000000000	0.00000000000000	0.00000000000000	0.00000000000000	0.00000000000000	3.70046200000000	0.00000000000000	0.00000000000000	0.00000000000000	0.00000000000000	
3.73665600000000	81.04191000000000	788.74591999999996	60.63534800000000	0.18050100000000	0.00000000000000	0.10590600000000	0.00000000000000	0.00000000000000	0.00000000000000	0.00000000000000	0.00000000000000	0.00000000000000	0.00000000000000	3.70266000000000	0.00000000000000	0.00000000000000	0.00000000000000	0.00000000000000	
3.73832000000000	80.39390299999999	790.85175400000003	60.63491700000000	0.17975600000000	0.00000000000000	0.10585200000000	0.00000000000000	0.00000000000000	0.00000000000000	0.00000000000000	0.00000000000000	0.00000000000000	0.00000000000000	3.70973900000000	0.00000000000000	0.00000000000000	0.00000000000000	0.00000000000000	
3.73998500000000	79.73923900000000	792.82670099999996	60.64140400000000	0.17901000000000	0.00000000000000	0.10580000000000	0.00000000000000	0.00000000000000	0.00000000000000	0.00000000000000	0.00000000000000	0.00000000000000	0.00000000000000	3.72168400000000	0.00000000000000	0.00000000000000	0.00000000000000	0.00000000000000	
3.74164900000000	79.07849800000000	794.66957400000001	60.65478400000000	0.17826200000000	0.00000000000000	0.10574900000000	0.00000000000000	0.00000000000000	0.00000000000000	0.00000000000000	0.00000000000000	0.00000000000000	0.00000000000000	3.73843500000000	0.00000000000000	0.00000000000000	0.00000000000000	0.00000000000000	
3.74331700000000	78.41222800000000	796.37934099999995	60.67491000000000	0.17751100000000	0.00000000000000	0.10569800000000	0.00000000000000	0.00000000000000	0.00000000000000	0.00000000000000	0.00000000000000	0.00000000000000	0.00000000000000	3.75988900000000	0.00000000000000	0.00000000000000	0.00000000000000	0.00000000000000	
3.74499300000000	77.74095199999999	797.95514200000002	60.70152000000000	0.17675700000000	0.00000000000000	0.10564900000000	0.00000000000000	0.00000000000000	0.00000000000000	0.00000000000000	0.00000000000000	0.00000000000000	0.00000000000000	3.78590800000000	0.00000000000000	0.00000000000000	0.00000000000000	0.00000000000000	
3.74665400000000	77.06516300000000	799.39628900000002	60.73424500000000	0.17599800000000	0.00000000000000	0.10560000000000	0.00000000000000	0.00000000000000	0.00000000000000	0.00000000000000	0.00000000000000	0.00000000000000	0.00000000000000	3.81631500000000	0.00000000000000	0.00000000000000	0.00000000000000	0.00000000000000	
3.74831700000000	76.38533200000001	800.70228399999996	60.77261300000000	0.17523500000000	0.00000000000000	0.10555200000000	0.00000000000000	0.00000000000000	0.00000000000000	0.00000000000000	0.00000000000000	0.00000000000000	0.00000000000000	3.85090100000000	0.00000000000000	0.00000000000000	0.00000000000000	0.00000000000000	
3.74999000000000	75.70191000000000	801.87281599999994	60.81606000000000	0.17446600000000	0.00000000000000	0.10550500000000	0.00000000000000	0.00000000000000	0.00000000000000	0.00000000000000	0.00000000000000	0.00000000000000	0.00000000000000	3.88942600000000	0.00000000000000	0.00000000000000	0.00000000000000	0.00000000000000	
3.75165100000000	75.01532700000000	802.90777700000001	60.86393700000000	0.17369100000000	0.00000000000000	0.10545800000000	0.00000000000000	0.00000000000000	0.00000000000000	0.00000000000000	0.00000000000000	0.00000000000000	0.00000000000000	3.93162100000000	0.00000000000000	0.00000000000000	0.00000000000000	0.00000000000000	
3.75331600000000	74.32599700000000	803.80725800000005	60.91551700000000	0.17290900000000	0.00000000000000	0.10541100000000	0.00000000000000	0.00000000000000	0.00000000000000	0.00000000000000	0.00000000000000	0.00000000000000	0.00000000000000	3.97719400000000	0.00000000000000	0.00000000000000	0.00000000000000	0.00000000000000	
3.75498400000000	73.63432100000000	804.57155999999998	60.97000800000000	0.17212000000000	0.00000000000000	0.10536600000000	0.00000000000000	0.00000000000000	0.00000000000000	0.00000000000000	0.00000000000000	0.00000000000000	0.00000000000000	4.02582900000000	0.00000000000000	0.00000000000000	0.00000000000000	0.00000000000000	
3.75664900000000	72.94068500000000	805.20119399999999	61.02655700000000	0.17132400000000	0.00000000000000	0.10532000000000	0.00000000000000	0.00000000000000	0.00000000000000	0.00000000000000	0.00000000000000	0.00000000000000	0.00000000000000	4.07719400000000	0.00000000000000	0.00000000000000	0.00000000000000	0.00000000000000	
3.75832000000000	72.24546700000000	805.69688499999995	61.08426200000000	0.17051900000000	0.00000000000000	0.10527500000000	0.00000000000000	0.00000000000000	0.00000000000000	0.00000000000000	0.00000000000000	0.00000000000000	0.00000000000000	4.13093800000000	0.00000000000000	0.00000000000000	0.00000000000000	0.00000000000000	
3.75998500000000	71.54903400000001	806.05956900000001	61.14218100000000	0.16970600000000	0.00000000000000	0.10523000000000	0.00000000000000	0.00000000000000	0.00000000000000	0.00000000000000	0.00000000000000	0.00000000000000	0.00000000000000	4.18670000000000	0.00000000000000	0.00000000000000	0.00000000000000	0.00000000000000	
3.76165000000000	70.85174900000000	806.29039899999998	61.19933900000000	0.16888400000000	0.00000000000000	0.10518500000000	0.00000000000000	0.00000000000000	0.00000000000000	0.00000000000000	0.00000000000000	0.00000000000000	0.00000000000000	4.24410900000000	0.00000000000000	0.00000000000000	0.00000000000000	0.00000000000000	
3.76332200000000	70.15396800000001	806.39074100000005	61.25473900000000	0.16805300000000	0.00000000000000	0.10513900000000	0.00000000000000	0.00000000000000	0.00000000000000	0.00000000000000	0.00000000000000	0.00000000000000	0.00000000000000	4.30278700000000	0.00000000000000	0.00000000000000	0.00000000000000	0.00000000000000	
